<mxfile host="65bd71144e">
    <diagram id="bVoswQC8T6PlKmy4Bn8u" name="Page-1">
        <mxGraphModel dx="431" dy="401" grid="1" gridSize="10" guides="1" tooltips="1" connect="1" arrows="1" fold="1" page="1" pageScale="1" pageWidth="827" pageHeight="1169" math="0" shadow="0">
            <root>
                <mxCell id="0"/>
                <mxCell id="1" parent="0"/>
                <mxCell id="603" style="edgeStyle=none;html=1;entryX=0.5;entryY=0;entryDx=0;entryDy=0;" parent="1" source="558" target="571" edge="1">
                    <mxGeometry relative="1" as="geometry"/>
                </mxCell>
                <mxCell id="558" value="Start" style="ellipse;whiteSpace=wrap;html=1;" parent="1" vertex="1">
                    <mxGeometry x="515.5" y="320" width="120" height="60" as="geometry"/>
                </mxCell>
                <mxCell id="559" value="Stop" style="ellipse;whiteSpace=wrap;html=1;" parent="1" vertex="1">
                    <mxGeometry x="514.99" y="1060" width="120" height="60" as="geometry"/>
                </mxCell>
                <mxCell id="621" style="edgeStyle=none;html=1;entryX=0;entryY=0.5;entryDx=0;entryDy=0;" edge="1" parent="1" source="571" target="620">
                    <mxGeometry relative="1" as="geometry"/>
                </mxCell>
                <mxCell id="624" style="edgeStyle=none;html=1;entryX=0.5;entryY=0;entryDx=0;entryDy=0;" edge="1" parent="1" source="571" target="623">
                    <mxGeometry relative="1" as="geometry"/>
                </mxCell>
                <mxCell id="571" value="&lt;font style=&quot;font-size: 12px&quot;&gt;if (lowIndex &amp;gt; highIndex)&lt;/font&gt;" style="rhombus;whiteSpace=wrap;html=1;fontSize=22;" parent="1" vertex="1">
                    <mxGeometry x="498" y="430" width="155" height="100" as="geometry"/>
                </mxCell>
                <mxCell id="572" value="no" style="text;html=1;align=center;verticalAlign=middle;resizable=0;points=[];autosize=1;strokeColor=none;fillColor=none;fontSize=12;" parent="1" vertex="1">
                    <mxGeometry x="590" y="530" width="30" height="20" as="geometry"/>
                </mxCell>
                <mxCell id="573" value="yes" style="text;html=1;align=center;verticalAlign=middle;resizable=0;points=[];autosize=1;strokeColor=none;fillColor=none;fontSize=12;" parent="1" vertex="1">
                    <mxGeometry x="652.5" y="450" width="30" height="20" as="geometry"/>
                </mxCell>
                <mxCell id="614" style="edgeStyle=none;html=1;entryX=0.5;entryY=0;entryDx=0;entryDy=0;" edge="1" parent="1" source="609" target="613">
                    <mxGeometry relative="1" as="geometry"/>
                </mxCell>
                <mxCell id="627" style="edgeStyle=none;html=1;entryX=0;entryY=0.5;entryDx=0;entryDy=0;" edge="1" parent="1" source="609" target="626">
                    <mxGeometry relative="1" as="geometry"/>
                </mxCell>
                <mxCell id="609" value="&lt;font style=&quot;font-size: 12px&quot;&gt;if&amp;nbsp; (arr[middle] === tar)&amp;nbsp;&lt;/font&gt;" style="rhombus;whiteSpace=wrap;html=1;fontSize=22;" vertex="1" parent="1">
                    <mxGeometry x="498" y="620" width="155" height="90" as="geometry"/>
                </mxCell>
                <mxCell id="630" style="edgeStyle=none;html=1;entryX=0;entryY=0.5;entryDx=0;entryDy=0;" edge="1" parent="1" source="613" target="629">
                    <mxGeometry relative="1" as="geometry"/>
                </mxCell>
                <mxCell id="636" value="" style="edgeStyle=none;html=1;" edge="1" parent="1" source="613" target="635">
                    <mxGeometry relative="1" as="geometry"/>
                </mxCell>
                <mxCell id="613" value="&lt;font style=&quot;font-size: 12px&quot;&gt;else if&amp;nbsp; (arr[mddle] &amp;gt; tar&lt;/font&gt;" style="rhombus;whiteSpace=wrap;html=1;fontSize=22;" vertex="1" parent="1">
                    <mxGeometry x="491.06" y="760" width="167.87" height="110" as="geometry"/>
                </mxCell>
                <mxCell id="615" value="no" style="text;html=1;align=center;verticalAlign=middle;resizable=0;points=[];autosize=1;strokeColor=none;fillColor=none;fontSize=12;" vertex="1" parent="1">
                    <mxGeometry x="580" y="720" width="30" height="20" as="geometry"/>
                </mxCell>
                <mxCell id="616" value="no" style="text;html=1;align=center;verticalAlign=middle;resizable=0;points=[];autosize=1;strokeColor=none;fillColor=none;fontSize=12;" vertex="1" parent="1">
                    <mxGeometry x="605.5" y="860" width="30" height="20" as="geometry"/>
                </mxCell>
                <mxCell id="617" value="yes" style="text;html=1;align=center;verticalAlign=middle;resizable=0;points=[];autosize=1;strokeColor=none;fillColor=none;fontSize=12;" vertex="1" parent="1">
                    <mxGeometry x="640" y="620" width="30" height="20" as="geometry"/>
                </mxCell>
                <mxCell id="618" value="yes" style="text;html=1;align=center;verticalAlign=middle;resizable=0;points=[];autosize=1;strokeColor=none;fillColor=none;fontSize=12;" vertex="1" parent="1">
                    <mxGeometry x="652.5" y="780" width="30" height="20" as="geometry"/>
                </mxCell>
                <mxCell id="638" style="edgeStyle=none;html=1;entryX=1;entryY=0.5;entryDx=0;entryDy=0;rounded=0;" edge="1" parent="1" source="620" target="559">
                    <mxGeometry relative="1" as="geometry">
                        <Array as="points">
                            <mxPoint x="880" y="480"/>
                            <mxPoint x="870" y="1090"/>
                        </Array>
                    </mxGeometry>
                </mxCell>
                <mxCell id="620" value="return -1" style="shape=parallelogram;perimeter=parallelogramPerimeter;whiteSpace=wrap;html=1;fixedSize=1;" vertex="1" parent="1">
                    <mxGeometry x="700" y="450" width="120" height="60" as="geometry"/>
                </mxCell>
                <mxCell id="625" style="edgeStyle=none;html=1;entryX=0.5;entryY=0;entryDx=0;entryDy=0;" edge="1" parent="1" source="623" target="609">
                    <mxGeometry relative="1" as="geometry"/>
                </mxCell>
                <mxCell id="623" value="const middle = Math.floor((lowIndex + highIndex) /2 )" style="rounded=1;whiteSpace=wrap;html=1;" vertex="1" parent="1">
                    <mxGeometry x="459.99" y="550" width="230" height="50" as="geometry"/>
                </mxCell>
                <mxCell id="640" style="edgeStyle=none;rounded=0;html=1;endArrow=none;endFill=0;" edge="1" parent="1" source="626">
                    <mxGeometry relative="1" as="geometry">
                        <mxPoint x="876" y="665" as="targetPoint"/>
                    </mxGeometry>
                </mxCell>
                <mxCell id="626" value="return middle" style="shape=parallelogram;perimeter=parallelogramPerimeter;whiteSpace=wrap;html=1;fixedSize=1;" vertex="1" parent="1">
                    <mxGeometry x="700" y="635" width="120" height="60" as="geometry"/>
                </mxCell>
                <mxCell id="639" style="edgeStyle=none;rounded=0;html=1;endArrow=none;endFill=0;" edge="1" parent="1" source="629">
                    <mxGeometry relative="1" as="geometry">
                        <mxPoint x="874" y="815" as="targetPoint"/>
                    </mxGeometry>
                </mxCell>
                <mxCell id="629" value="return binarySearch(arr, tar, lowIndex, middle - 1)" style="shape=parallelogram;perimeter=parallelogramPerimeter;whiteSpace=wrap;html=1;fixedSize=1;" vertex="1" parent="1">
                    <mxGeometry x="689.99" y="785" width="180.01" height="60" as="geometry"/>
                </mxCell>
                <mxCell id="637" style="edgeStyle=none;html=1;entryX=0.5;entryY=0;entryDx=0;entryDy=0;" edge="1" parent="1" source="635" target="559">
                    <mxGeometry relative="1" as="geometry"/>
                </mxCell>
                <mxCell id="635" value="return binarySearch(arr, tar, middle + 1. highIndex" style="shape=parallelogram;perimeter=parallelogramPerimeter;whiteSpace=wrap;html=1;fixedSize=1;" vertex="1" parent="1">
                    <mxGeometry x="485.49" y="950" width="180.01" height="60" as="geometry"/>
                </mxCell>
            </root>
        </mxGraphModel>
    </diagram>
</mxfile>